<svg width="16" height="18" viewBox="0 0 24 26" fill="none" xmlns="http://www.w3.org/2000/svg">
<path d="M22.0186 6.1325H2.01855V24.1613C2.01855 24.9 2.57855 25.5 3.26855 25.5H20.7686C21.4586 25.5 22.0186 24.9 22.0186 24.1613C22.0186 19.28 22.0186 6.1325 22.0186 6.1325ZM14.8311 9.25C15.3486 9.25 15.7686 9.67 15.7686 10.1875V20.8125C15.7686 21.33 15.3486 21.75 14.8311 21.75C14.3136 21.75 13.8936 21.33 13.8936 20.8125V10.1875C13.8936 9.67 14.3136 9.25 14.8311 9.25ZM9.20605 9.25C9.72355 9.25 10.1436 9.67 10.1436 10.1875V20.8125C10.1436 21.33 9.72355 21.75 9.20605 21.75C8.68855 21.75 8.26855 21.33 8.26855 20.8125V10.1875C8.26855 9.67 8.68855 9.25 9.20605 9.25ZM8.26855 3V1.75C8.26855 1.08125 8.86105 0.5 9.51855 0.5H14.5186C15.1761 0.5 15.7686 1.08125 15.7686 1.75V3H22.3361C22.8511 3 23.2686 3.41875 23.2686 3.93375C23.2686 4.44875 22.8511 4.8675 22.3361 4.8675H1.7023C1.18605 4.8675 0.768555 4.44875 0.768555 3.93375C0.768555 3.41875 1.18605 3 1.7023 3H8.26855ZM13.8936 3V2.375H10.1436V3H13.8936Z" fill="#FF1B1C"/>
</svg>
