<svg width="21" height="23" viewBox="0 0 30 30" fill="none" xmlns="http://www.w3.org/2000/svg">
<path d="M14.0625 7.49996C14.56 7.49996 15 7.93996 15 8.43746C15 8.95496 14.58 9.37496 14.0625 9.37496C12.1812 9.37496 4.375 9.37496 4.375 9.37496V24.375H25.625V13.4375C25.625 12.92 26.045 12.5 26.5625 12.5C27.08 12.5 27.5 12.92 27.5 13.4375V25C27.5 25.7762 26.8475 26.25 26.25 26.25H3.75C3.15 26.25 2.5 25.7762 2.5 25V8.74996C2.5 8.14871 2.975 7.49996 3.75 7.49996H14.0625ZM11.5487 15.6575C10.2425 19.4112 10.0013 19.97 10.0013 20.4575C10.0013 21.0087 10.4825 21.24 10.785 21.24C11.125 21.24 12.17 20.8637 15.5712 19.6787L11.5487 15.6575ZM12.6587 14.5462L16.6838 18.5712L27.1937 8.07121C27.3975 7.86746 27.5 7.59996 27.5 7.33121C27.5 7.06496 27.3975 6.79746 27.1937 6.59246C26.4687 5.86996 25.3713 4.77121 24.645 4.04746C24.4412 3.84371 24.1737 3.74121 23.9062 3.74121C23.64 3.74121 23.3713 3.84371 23.1663 4.04746L12.6587 14.5462Z" fill="#1C7B47"/>
</svg>
