<svg width="29" height="29" viewBox="0 0 29 29" fill="none" xmlns="http://www.w3.org/2000/svg">
<path d="M14.5007 0C22.5024 0 29 6.49762 29 14.4993C29 22.5024 22.5024 29 14.5007 29C6.49762 29 0 22.5024 0 14.4993C0 6.49762 6.49762 0 14.5007 0ZM14.5007 2.17554C7.69852 2.17554 2.17554 7.69707 2.17554 14.4993C2.17554 21.3015 7.69852 26.8245 14.5007 26.8245C21.3029 26.8245 26.8245 21.3015 26.8245 14.4993C26.8245 7.69707 21.3029 2.17554 14.5007 2.17554ZM7.17784 15.0635L12.7632 20.0382C12.9691 20.2239 13.2288 20.3138 13.4869 20.3138C13.7799 20.3138 14.0743 20.1963 14.2875 19.9628L22.9215 10.5224C23.1115 10.315 23.2058 10.0539 23.2058 9.7943C23.2058 9.19965 22.7257 8.71088 22.1209 8.71088C21.8251 8.71088 21.5335 8.82981 21.3174 9.06332L13.4086 17.7104L8.62531 13.4492C8.41645 13.265 8.15974 13.1736 7.90157 13.1736C7.29967 13.1736 6.8167 13.6595 6.8167 14.2556C6.8167 14.5529 6.93853 14.8488 7.17784 15.0635Z" fill="#E6E6E6"/>
</svg>
